<?xml version="1.0"?>
<svg width="300" height="300" xmlns="http://www.w3.org/2000/svg" xmlns:svg="http://www.w3.org/2000/svg">
 <!-- Created with SVG-edit - https://github.com/SVG-Edit/svgedit-->
 <g class="layer">
  <title>Layer 1</title>
  <path d="m290.007242,95.938092c-17.05956,16.965822 -43.449653,20.420895 -64.343162,8.424837c-20.893509,-11.996821 -31.080018,-36.453564 -24.835657,-59.629226c6.244386,-23.175505 27.362092,-39.29066 51.487549,-39.29066l37.691271,90.495053l0,-0.000004l-0.000001,0z" fill="#000000" id="svg_13" stroke="#000000" stroke-dasharray="null" stroke-linecap="null" stroke-linejoin="null" stroke-width="5" transform="rotate(146.437 244.507 58.455)"/>
  <path d="m110.609399,93.61007c-17.05956,16.965822 -43.449653,20.420895 -64.343162,8.424837c-20.893509,-11.996821 -31.080018,-36.453564 -24.835657,-59.629226c6.244386,-23.175505 27.362092,-39.29066 51.487549,-39.29066l37.691271,90.495053l0,-0.000004l-0.000001,0z" fill="#000000" id="svg_10" stroke="#000000" stroke-dasharray="null" stroke-linecap="null" stroke-linejoin="null" stroke-width="5" transform="rotate(68.4239 65.109 56.126)"/>
  <ellipse cx="149.999996" cy="138.000004" fill="#ffffff" id="svg_1" rx="129.499996" ry="118.500004" stroke="#000000" stroke-width="5"/>
  <path d="m104.648685,57.5c0,0 -61.148681,58.453606 -61.148681,58.453606c0,0 2.223588,48.061854 1.667691,47.41237c-0.555897,-0.649485 47.251253,20.13402 47.251253,20.13402c0,0 41.136385,-48.061854 40.580488,-48.711339c-0.555897,-0.649485 -28.350752,-77.288657 -28.350752,-77.288657l0.000001,0z" fill="#000000" id="svg_7" stroke="#000000" stroke-dasharray="null" stroke-linecap="null" stroke-linejoin="null" stroke-width="5"/>
  <path d="m159.30903,184.173335c-3.200406,3.200406 -8.151237,3.852165 -12.070899,1.589248c-3.919662,-2.263061 -5.83067,-6.876542 -4.659216,-11.248362c1.171459,-4.37179 5.13318,-7.411727 9.659161,-7.411727l7.070953,17.070842l0,-0.000001l0.000001,0z" fill="#000000" id="svg_9" stroke="#000000" stroke-dasharray="null" stroke-linecap="null" stroke-linejoin="null" stroke-width="5" transform="rotate(-69.2554 150.773 177.103)"/>
  <path d="m194.239279,54.5c0,0 62.508217,58.453606 62.508217,58.453606c0,0 -2.273026,48.061854 -1.70477,47.41237c0.568257,-0.649485 -48.301804,20.13402 -48.301804,20.13402c0,0 -42.050982,-48.061854 -41.482726,-48.711339c0.568257,-0.649485 28.981082,-77.288657 28.981082,-77.288657l0.000001,0z" fill="#000000" id="svg_14" stroke="#000000" stroke-dasharray="null" stroke-linecap="null" stroke-linejoin="null" stroke-width="5"/>
  <path d="m97.937498,228.609982l0,0c0,-15.740121 12.759887,-28.500005 28.500005,-28.500005c15.740117,0 28.500005,12.759885 28.500005,28.500005l-14.250003,0c0,-7.87006 -6.379946,-14.250003 -14.250003,-14.250003c-7.870056,0 -14.250003,6.379942 -14.250003,14.250003l-14.250003,0l0.000002,0z" fill="#000000" id="svg_22" stroke="#000000" stroke-dasharray="null" stroke-linecap="null" stroke-linejoin="null" stroke-width="5" transform="rotate(-177.487 126.437 214.36)"/>
  <path d="m145.388152,230.360806l0,0c0,-15.740121 12.759887,-28.500005 28.500005,-28.500005c15.740117,0 28.500005,12.759885 28.500005,28.500005l-14.250003,0c0,-7.87006 -6.379946,-14.250003 -14.250003,-14.250003c-7.870056,0 -14.250003,6.379942 -14.250003,14.250003l-14.250003,0l0.000002,0z" fill="#000000" id="svg_23" stroke="#000000" stroke-dasharray="null" stroke-linecap="null" stroke-linejoin="null" stroke-width="5" transform="rotate(-177.487 173.888 216.111)"/>
  <circle cx="108.5" cy="116.5" fill="#ffffff" id="svg_24" r="10.770329" stroke="#000000" stroke-dasharray="null" stroke-linecap="null" stroke-linejoin="null" stroke-width="5"/>
  <circle cx="187.499996" cy="118.499995" fill="#ffffff" id="svg_27" r="10.770329" stroke="#000000" stroke-dasharray="null" stroke-linecap="null" stroke-linejoin="null" stroke-width="5"/>
  <text fill="#000000" font-family="serif" font-size="24" id="svg_2" stroke="#000000" stroke-dasharray="null" stroke-linecap="null" stroke-linejoin="null" stroke-width="0" text-anchor="middle" transform="matrix(2.52688 0 0 1.69231 46.4235 -185.654)" x="40.582979" xml:space="preserve" y="281.090909">Panda Dev</text>
 </g>
</svg>